HIERARCHY
ROOT hip
{
  OFFSET 0.0 0.0 0.0
  CHANNELS 6 Xposition Yposition Zposition Zrotation Yrotation Xrotation
  JOINT abdomen
  {
    OFFSET 0.0 20.6881 -0.73152
    CHANNELS 3 Zrotation Xrotation Yrotation
    JOINT chest
    {
      OFFSET 0.0 11.7043 -0.48768
      CHANNELS 3 Zrotation Xrotation Yrotation
      JOINT neck
      {
        OFFSET 0.0 22.1894 -2.19456
        CHANNELS 3 Zrotation Xrotation Yrotation
        JOINT head
        {
          OFFSET -0.24384 7.07133 1.2192
          CHANNELS 3 Zrotation Xrotation Yrotation
          JOINT leftEye
          {
            OFFSET 4.14528 8.04674 8.04672
            CHANNELS 3 Zrotation Xrotation Yrotation
            End Site
            {
              OFFSET 1.0 0.0 0.0
            }
          }
          JOINT rightEye
          {
            OFFSET -3.6576 8.04674 8.04672
            CHANNELS 3 Zrotation Xrotation Yrotation
            End Site
            {
              OFFSET 1.0 0.0 0.0
            }
          }
        }
      }
      JOINT rCollar
      {
        OFFSET -2.68224 19.2634 -4.8768
        CHANNELS 3 Zrotation Xrotation Yrotation
        JOINT rShldr
        {
          OFFSET -8.77824 -1.95073 1.46304
          CHANNELS 3 Zrotation Xrotation Yrotation
          JOINT rForeArm
          {
            OFFSET -28.1742 -1.7115 0.48768
            CHANNELS 3 Zrotation Xrotation Yrotation
            JOINT rHand
            {
              OFFSET -22.5879 0.773209 7.07136
              CHANNELS 3 Zrotation Xrotation Yrotation
              JOINT rThumb1
              {
                OFFSET -1.2192 -0.487915 3.41376
                CHANNELS 3 Zrotation Xrotation Yrotation
                JOINT rThumb2
                {
                  OFFSET -3.37035 -0.52449 3.41376
                  CHANNELS 3 Zrotation Xrotation Yrotation
                  End Site
                  {
                    OFFSET -1.78271 -1.18214 1.43049
                  }
                }
              }
              JOINT rIndex1
              {
                OFFSET -7.75947 0.938293 5.60832
                CHANNELS 3 Zrotation Xrotation Yrotation
                JOINT rIndex2
                {
                  OFFSET -2.54057 -0.884171 1.56538
                  CHANNELS 3 Zrotation Xrotation Yrotation
                  End Site
                  {
                    OFFSET -1.62519 -0.234802 1.16502
                  }
                }
              }
              JOINT rMid1
              {
                OFFSET -8.24714 1.18213 3.41376
                CHANNELS 3 Zrotation Xrotation Yrotation
                JOINT rMid2
                {
                  OFFSET -3.10165 -0.590103 1.0647
                  CHANNELS 3 Zrotation Xrotation Yrotation
                  End Site
                  {
                    OFFSET -2.48547 -0.328903 0.83742
                  }
                }
              }
              JOINT rRing1
              {
                OFFSET -8.82822 0.546677 1.51678
                CHANNELS 3 Zrotation Xrotation Yrotation
                JOINT rRing2
                {
                  OFFSET -2.60934 -0.819778 -0.0198488
                  CHANNELS 3 Zrotation Xrotation Yrotation
                  End Site
                  {
                    OFFSET -2.33842 -0.294052 0.168128
                  }
                }
              }
              JOINT rPinky1
              {
                OFFSET -8.27202 -0.0477905 -0.4584
                CHANNELS 3 Zrotation Xrotation Yrotation
                JOINT rPinky2
                {
                  OFFSET -1.82734 -0.647385 -0.700984
                  CHANNELS 3 Zrotation Xrotation Yrotation
                  End Site
                  {
                    OFFSET -1.69225 -0.51767 -0.607171
                  }
                }
              }
            }
          }
        }
      }
      JOINT lCollar
      {
        OFFSET 2.68224 19.2634 -4.8768
        CHANNELS 3 Zrotation Xrotation Yrotation
        JOINT lShldr
        {
          OFFSET 8.77824 -1.95073 1.46304
          CHANNELS 3 Zrotation Xrotation Yrotation
          JOINT lForeArm
          {
            OFFSET 28.1742 -1.7115 0.48768
            CHANNELS 3 Zrotation Xrotation Yrotation
            JOINT lHand
            {
              OFFSET 22.5879 0.773209 7.07136
              CHANNELS 3 Zrotation Xrotation Yrotation
              JOINT lThumb1
              {
                OFFSET 1.2192 -0.487915 3.41376
                CHANNELS 3 Zrotation Xrotation Yrotation
                JOINT lThumb2
                {
                  OFFSET 3.37035 -0.52449 3.41376
                  CHANNELS 3 Zrotation Xrotation Yrotation
                  End Site
                  {
                    OFFSET 1.78271 -1.18214 1.43049
                  }
                }
              }
              JOINT lIndex1
              {
                OFFSET 7.75947 0.938293 5.60832
                CHANNELS 3 Zrotation Xrotation Yrotation
                JOINT lIndex2
                {
                  OFFSET 2.54057 -0.884171 1.56538
                  CHANNELS 3 Zrotation Xrotation Yrotation
                  End Site
                  {
                    OFFSET 1.62519 -0.234802 1.16502
                  }
                }
              }
              JOINT lMid1
              {
                OFFSET 8.24714 1.18213 3.41376
                CHANNELS 3 Zrotation Xrotation Yrotation
                JOINT lMid2
                {
                  OFFSET 3.10165 -0.590103 1.0647
                  CHANNELS 3 Zrotation Xrotation Yrotation
                  End Site
                  {
                    OFFSET 2.48547 -0.328903 0.83742
                  }
                }
              }
              JOINT lRing1
              {
                OFFSET 8.82822 0.546677 1.51678
                CHANNELS 3 Zrotation Xrotation Yrotation
                JOINT lRing2
                {
                  OFFSET 2.60934 -0.819778 -0.0198488
                  CHANNELS 3 Zrotation Xrotation Yrotation
                  End Site
                  {
                    OFFSET 2.33842 -0.294052 0.168128
                  }
                }
              }
              JOINT lPinky1
              {
                OFFSET 8.27202 -0.0477905 -0.4584
                CHANNELS 3 Zrotation Xrotation Yrotation
                JOINT lPinky2
                {
                  OFFSET 1.82734 -0.647385 -0.700984
                  CHANNELS 3 Zrotation Xrotation Yrotation
                  End Site
                  {
                    OFFSET 1.69225 -0.51767 -0.607171
                  }
                }
              }
            }
          }
        }
      }
    }
  }
  JOINT rButtock
  {
    OFFSET -8.77824 4.35084 1.2192
    CHANNELS 3 Zrotation Xrotation Yrotation
    JOINT rThigh
    {
      OFFSET 0.0 -1.70687 -2.19456
      CHANNELS 3 Zrotation Xrotation Yrotation
      JOINT rShin
      {
        OFFSET 0.0 -36.8199 0.73152
        CHANNELS 3 Zrotation Xrotation Yrotation
        JOINT rFoot
        {
          OFFSET 0.73152 -45.1104 -5.12064
          CHANNELS 3 Zrotation Xrotation Yrotation
          End Site
          {
            OFFSET -1.1221 -3.69964 12.103
          }
        }
      }
    }
  }
  JOINT lButtock
  {
    OFFSET 8.77824 4.35084 1.2192
    CHANNELS 3 Zrotation Xrotation Yrotation
    JOINT lThigh
    {
      OFFSET 0.0 -1.70687 -2.19456
      CHANNELS 3 Zrotation Xrotation Yrotation
      JOINT lShin
      {
        OFFSET 0.0 -36.8199 0.73152
        CHANNELS 3 Zrotation Xrotation Yrotation
        JOINT lFoot
        {
          OFFSET -0.73152 -45.1104 -5.12064
          CHANNELS 3 Zrotation Xrotation Yrotation
          End Site
          {
            OFFSET 1.1221 -3.69964 12.103
          }
        }
      }
    }
  }
}
MOTION
Frames: 6
Frame Time: 0.00833333
-88.3836 77.115 -16.3318 -171.758 5.4222 -171.227 5.8886 -0.731036 2.55779 2.57596 -14.4137 1.84326 1.17708 -0.97522 -2.29143 0.240594 11.0757 -2.06466 -0.0 0.0 0.0 -0.0 0.0 0.0 -2.39986e-13 -3.88823e-13 1.44019e-13 82.1421 45.2054 -27.1864 -15.7584 -8.46457 29.1641 -0.0630198 -7.14471 -1.00941 1.41908e-09 -2.15531e-09 7.87416e-10 2.45635e-09 -3.73125e-09 1.36477e-09 1.41908e-09 -2.1553e-09 7.874e-10 7.73091 5.47488 0.417314 1.41908e-09 -2.15531e-09 7.87419e-10 2.90554 0.965183 0.102902 1.41909e-09 -2.15531e-09 7.87423e-10 10.2786 0.731801 0.0259123 1.41908e-09 -2.15531e-09 7.87429e-10 2.22167 -0.733487 -0.20892 -2.40244e-13 -3.88824e-13 1.43721e-13 -72.3201 15.811 20.6164 12.9989 -6.17434 -23.5608 0.136762 10.4851 -1.49042 1.12515e-09 -1.01958e-09 -4.0318e-10 1.93654e-09 -1.76716e-09 -7.05934e-10 1.12515e-09 -1.01958e-09 -4.03167e-10 -7.73091 5.47488 -0.417314 1.12515e-09 -1.01958e-09 -4.03189e-10 -2.90554 0.965183 -0.102902 1.12514e-09 -1.01958e-09 -4.03178e-10 -10.2786 0.731801 -0.0259123 1.12515e-09 -1.01958e-09 -4.03183e-10 -2.22167 -0.733487 0.20892 -2.03217e-16 0.0 -3.88251e-19 0.549652 -17.3763 6.14275 0.00743598 24.2172 -0.0485044 -4.79905 -16.0371 -8.87367 2.03217e-16 0.0 3.88251e-19 31.7228 -1.29719 -26.2357 0.0137641 4.95101 -0.490512 -3.9555 -28.0527 -13.8236
-86.5858 77.6769 -16.0662 -172.318 5.9341 -171.233 4.47269 -0.705342 2.45003 2.32955 -14.4355 1.74439 1.40427 -0.959674 -2.0622 -0.0190906 10.9563 -1.67513 -0.0 0.0 0.0 -0.0 0.0 0.0 -1.60916e-13 -4.07029e-13 1.75092e-13 81.8456 45.214 -26.4592 -15.7143 -8.42423 29.0719 -0.0586226 -6.89273 -0.973457 5.12563e-11 -1.49671e-09 1.28041e-09 8.97704e-11 -2.58916e-09 2.2139e-09 5.12581e-11 -1.4967e-09 1.28039e-09 7.73091 5.47488 0.417314 5.12526e-11 -1.49671e-09 1.28041e-09 2.90554 0.965183 0.102902 5.12608e-11 -1.49671e-09 1.28041e-09 10.2786 0.731801 0.0259123 5.12538e-11 -1.49671e-09 1.28042e-09 2.22167 -0.733487 -0.20892 -1.61128e-13 -4.07032e-13 1.74799e-13 -72.5351 15.5417 20.9548 12.8953 -6.09709 -23.356 0.151464 11.0935 -1.57867 7.81394e-10 -1.77402e-09 -1.01743e-09 1.33737e-09 -3.07455e-09 -1.76416e-09 7.81394e-10 -1.77401e-09 -1.01742e-09 -7.73091 5.47488 -0.417314 7.81394e-10 -1.77402e-09 -1.01744e-09 -2.90554 0.965183 -0.102902 7.81392e-10 -1.77401e-09 -1.01743e-09 -10.2786 0.731801 -0.0259123 7.81399e-10 -1.77401e-09 -1.01744e-09 -2.22167 -0.733487 0.20892 -2.03217e-16 0.0 -3.88251e-19 0.634275 -17.3571 5.30175 0.00755268 23.9376 -0.0569949 -4.47092 -15.355 -7.60521 2.03217e-16 0.0 3.88251e-19 31.0156 0.0850366 -28.6506 -0.0332197 2.95511 -0.713449 -4.88154 -35.0147 -12.9961
-84.9052 78.3313 -15.8609 -173.099 6.3569 -171.284 2.62324 -0.684861 2.28939 2.11692 -14.4751 1.62785 1.77723 -0.934339 -1.82411 -0.481941 10.7388 -1.31149 -0.0 0.0 0.0 -0.0 0.0 0.0 -1.31884e-14 -3.81017e-13 2.1598e-13 81.4896 45.0723 -25.6809 -15.6748 -8.38832 28.9895 -0.0542662 -6.63481 -0.936692 -2.03978e-09 -2.75146e-10 1.85119e-09 -3.52815e-09 -4.71692e-10 3.19575e-09 -2.03978e-09 -2.75141e-10 1.85117e-09 7.73091 5.47488 0.417314 -2.03978e-09 -2.75143e-10 1.85119e-09 2.90554 0.965183 0.102902 -2.03978e-09 -2.75142e-10 1.85119e-09 10.2786 0.731801 0.0259123 -2.03978e-09 -2.75142e-10 1.8512e-09 2.22167 -0.733487 -0.20892 -1.33098e-14 -3.81024e-13 2.157e-13 -72.7043 15.1689 21.2839 12.7715 -6.00512 -23.1125 0.176951 11.998 -1.71092 5.92086e-11 -2.72274e-09 -1.71471e-09 8.41112e-11 -4.71781e-09 -2.96211e-09 5.92071e-11 -2.72273e-09 -1.7147e-09 -7.73091 5.47488 -0.417314 5.92083e-11 -2.72274e-09 -1.71472e-09 -2.90554 0.965183 -0.102902 5.92061e-11 -2.72273e-09 -1.71471e-09 -10.2786 0.731801 -0.0259123 5.92145e-11 -2.72273e-09 -1.71472e-09 -2.22167 -0.733487 0.20892 -2.03217e-16 0.0 -3.88251e-19 0.717149 -16.9088 5.34464 -0.000923132 23.0365 -0.0449086 -4.41692 -15.1254 -7.27548 2.03217e-16 0.0 3.88251e-19 29.7345 1.49532 -31.7941 -0.0807281 0.95906 -0.990355 -5.9808 -43.1975 -12.5113
-83.3367 78.958 -15.7043 -173.976 6.6656 -171.347 0.873163 -0.681351 2.11833 1.91282 -14.5185 1.50934 2.12599 -0.922485 -1.61037 -0.963107 10.5276 -0.988568 -0.0 0.0 0.0 -0.0 0.0 0.0 1.32697e-13 -3.29089e-13 2.46928e-13 81.1359 44.8867 -24.9895 -15.653 -8.3686 28.9439 -0.0510331 -6.43434 -0.908145 -3.94526e-09 9.4057e-10 2.28254e-09 -6.8251e-09 1.63528e-09 3.93699e-09 -3.94526e-09 9.40573e-10 2.28252e-09 7.73091 5.47488 0.417314 -3.94527e-09 9.4057e-10 2.28254e-09 2.90554 0.965183 0.102902 -3.94526e-09 9.40571e-10 2.28254e-09 10.2786 0.731801 0.0259123 -3.94527e-09 9.40573e-10 2.28254e-09 2.22167 -0.733487 -0.20892 1.32665e-13 -3.29099e-13 2.46665e-13 -72.8379 14.7978 21.5337 12.6418 -5.90932 -22.8586 0.207499 12.9261 -1.848 -6.66652e-10 -3.46924e-09 -2.25783e-09 -1.17399e-09 -6.01056e-09 -3.89374e-09 -6.66654e-10 -3.46924e-09 -2.25783e-09 -7.73091 5.47488 -0.417314 -6.66651e-10 -3.46924e-09 -2.25784e-09 -2.90554 0.965183 -0.102902 -6.66654e-10 -3.46924e-09 -2.25783e-09 -10.2786 0.731801 -0.0259123 -6.66644e-10 -3.46923e-09 -2.25784e-09 -2.22167 -0.733487 0.20892 -2.03217e-16 0.0 -3.88251e-19 0.99115 -16.2952 5.92295 -0.0114762 21.889 -0.0174492 -4.52216 -15.1492 -7.56415 2.03217e-16 0.0 3.88251e-19 28.293 2.36776 -34.3243 -0.126202 -0.426489 -1.24053 -6.35368 -50.4492 -11.6057
-81.8666 79.5387 -15.5239 -174.785 6.7827 -171.408 -0.244789 -0.706586 1.97928 1.69221 -14.5514 1.40458 2.28095 -0.947395 -1.4542 -1.28042 10.4272 -0.720648 -0.0 0.0 0.0 -0.0 0.0 0.0 2.06239e-13 -2.69546e-13 2.48183e-13 80.836 44.7689 -24.5151 -15.6618 -8.37686 28.962 -0.0497849 -6.35469 -0.89681 -4.75643e-09 1.58162e-09 2.35724e-09 -8.22873e-09 2.74588e-09 4.06428e-09 -4.75642e-09 1.58162e-09 2.35723e-09 7.73091 5.47488 0.417314 -4.75643e-09 1.58162e-09 2.35724e-09 2.90554 0.965183 0.102902 -4.75643e-09 1.58162e-09 2.35724e-09 10.2786 0.731801 0.0259123 -4.75644e-09 1.58163e-09 2.35725e-09 2.22167 -0.733487 -0.20892 2.06253e-13 -2.69557e-13 2.47934e-13 -72.9495 14.5328 21.6343 12.521 -5.82079 -22.623 0.232549 13.6054 -1.94926 -1.02143e-09 -3.61702e-09 -2.40961e-09 -1.78769e-09 -6.26638e-09 -4.15299e-09 -1.02143e-09 -3.61702e-09 -2.40961e-09 -7.73091 5.47488 -0.417314 -1.02143e-09 -3.61702e-09 -2.40962e-09 -2.90554 0.965183 -0.102902 -1.02143e-09 -3.61702e-09 -2.40961e-09 -10.2786 0.731801 -0.0259123 -1.02142e-09 -3.61701e-09 -2.40962e-09 -2.22167 -0.733487 0.20892 -2.03217e-16 0.0 -3.88251e-19 1.65577 -15.7767 6.68956 -0.0180439 20.87 0.0204036 -4.69448 -15.2188 -8.1575 2.03217e-16 0.0 3.88251e-19 26.9451 2.25157 -34.8762 -0.149734 -0.591225 -1.38209 -4.70892 -54.5799 -8.9999
-80.4205 80.1551 -15.2624 -175.254 6.649 -171.409 -0.531649 -0.74811 1.86429 1.42556 -14.5821 1.30607 2.14109 -1.05331 -1.37117 -1.31421 10.5067 -0.515186 -0.0 0.0 0.0 -0.0 0.0 0.0 1.70959e-13 -1.83505e-13 1.98245e-13 80.5926 44.764 -24.3123 -15.7216 -8.43159 29.0861 -0.0514313 -6.4644 -0.912414 -3.8263e-09 1.36074e-09 1.80475e-09 -6.61962e-09 2.36173e-09 3.11138e-09 -3.82629e-09 1.36074e-09 1.80474e-09 7.73091 5.47488 0.417314 -3.8263e-09 1.36074e-09 1.80475e-09 2.90554 0.965183 0.102902 -3.82629e-09 1.36074e-09 1.80475e-09 10.2786 0.731801 0.0259123 -3.8263e-09 1.36074e-09 1.80476e-09 2.22167 -0.733487 -0.20892 1.70948e-13 -1.83513e-13 1.98014e-13 -73.0404 14.4192 21.5212 12.3959 -5.73031 -22.3786 0.248316 14.0159 -2.01074 -8.31787e-10 -2.74537e-09 -1.89689e-09 -1.45514e-09 -4.75657e-09 -3.26975e-09 -8.31791e-10 -2.74537e-09 -1.89689e-09 -7.73091 5.47488 -0.417314 -8.31786e-10 -2.74537e-09 -1.8969e-09 -2.90554 0.965183 -0.102902 -8.31791e-10 -2.74537e-09 -1.89689e-09 -10.2786 0.731801 -0.0259123 -8.31781e-10 -2.74537e-09 -1.8969e-09 -2.22167 -0.733487 0.20892 -2.03217e-16 0.0 -3.88251e-19 2.89224 -15.3603 7.69674 -0.0184634 19.989 0.0783491 -4.9788 -15.2998 -9.13118 2.03217e-16 0.0 3.88251e-19 25.8857 0.705258 -32.5415 -0.135151 0.84149 -1.36874 -0.0721099 -53.9375 -3.42587
